<svg width="24" height="24" viewBox="0 0 24 24" fill="none" xmlns="http://www.w3.org/2000/svg">
<path fill-rule="evenodd" clip-rule="evenodd" d="M15 1C11.6863 1 9 3.68629 9 7V9H7C6.44772 9 6 9.44771 6 10V14C6 14.5523 6.44772 15 7 15H9V22C9 22.5523 9.44772 23 10 23H14C14.5523 23 15 22.5523 15 22V15H17C17.4589 15 17.8589 14.6877 17.9701 14.2425L18.9701 10.2425C19.1279 9.61139 18.6506 9 18 9H15V7H18C18.5523 7 19 6.55228 19 6V2C19 1.44772 18.5523 1 18 1H15ZM15 3H17V5H15C13.8954 5 13 5.89543 13 7V10C13 10.5523 13.4477 11 14 11H16.7192L16.2192 13H14C13.4477 13 13 13.4477 13 14V21H11V14C11 13.4477 10.5523 13 10 13H8V11H10C10.5523 11 11 10.5523 11 10V7C11 4.79086 12.7909 3 15 3Z" fill="black"/>
<mask id="mask0" mask-type="alpha" maskUnits="userSpaceOnUse" x="6" y="1" width="14" height="22">
<path fill-rule="evenodd" clip-rule="evenodd" d="M15 1C11.6863 1 9 3.68629 9 7V9H7C6.44772 9 6 9.44771 6 10V14C6 14.5523 6.44772 15 7 15H9V22C9 22.5523 9.44772 23 10 23H14C14.5523 23 15 22.5523 15 22V15H17C17.4589 15 17.8589 14.6877 17.9701 14.2425L18.9701 10.2425C19.1279 9.61139 18.6506 9 18 9H15V7H18C18.5523 7 19 6.55228 19 6V2C19 1.44772 18.5523 1 18 1H15ZM15 3H17V5H15C13.8954 5 13 5.89543 13 7V10C13 10.5523 13.4477 11 14 11H16.7192L16.2192 13H14C13.4477 13 13 13.4477 13 14V21H11V14C11 13.4477 10.5523 13 10 13H8V11H10C10.5523 11 11 10.5523 11 10V7C11 4.79086 12.7909 3 15 3Z" fill="white"/>
</mask>
<g mask="url(#mask0)">
<rect width="24" height="24" fill="black"/>
</g>
</svg>
