<svg width="24" height="24" viewBox="0 0 24 24" fill="none" xmlns="http://www.w3.org/2000/svg">
<path fill-rule="evenodd" clip-rule="evenodd" d="M20 5.41421V9C20 9.55228 20.4477 10 21 10C21.5523 10 22 9.55228 22 9V3C22 2.58331 21.7451 2.22614 21.3828 2.07588C21.5007 2.12468 21.6112 2.19702 21.7071 2.29289C22.0976 2.68342 22.0976 3.31658 21.7071 3.70711L20 5.41421ZM18.5858 4H20V5.41421M18.5858 4L20.2929 2.29289C20.4882 2.09763 20.7441 2 21 2M17 13V19C17 19.5523 16.5523 20 16 20H5C4.44772 20 4 19.5523 4 19V8C4 7.44772 4.44772 7 5 7H11C11.5523 7 12 6.55228 12 6C12 5.44772 11.5523 5 11 5H5C3.34315 5 2 6.34315 2 8V19C2 20.6569 3.34315 22 5 22H16C17.6569 22 19 20.6569 19 19V13C19 12.4477 18.5523 12 18 12C17.4477 12 17 12.4477 17 13Z" fill="black"/>
<mask id="mask0" mask-type="alpha" maskUnits="userSpaceOnUse" x="9" y="2" width="13" height="13">
<path fill-rule="evenodd" clip-rule="evenodd" d="M18.5858 4L9.29289 13.2929C8.90237 13.6834 8.90237 14.3166 9.29289 14.7071C9.68342 15.0976 10.3166 15.0976 10.7071 14.7071L20 5.41421V9C20 9.55228 20.4477 10 21 10C21.5523 10 22 9.55228 22 9V3C22 2.86441 21.973 2.73512 21.9241 2.61722C21.8753 2.49927 21.803 2.38877 21.7071 2.29289C21.6112 2.19702 21.5007 2.12468 21.3828 2.07588C21.2649 2.02699 21.1356 2 21 2H15C14.4477 2 14 2.44772 14 3C14 3.55228 14.4477 4 15 4H18.5858Z" fill="white"/>
</mask>
<g mask="url(#mask0)">
<rect width="24" height="24" fill="black"/>
</g>
</svg>
