<svg width="24" height="24" viewBox="0 0 24 24" fill="none" xmlns="http://www.w3.org/2000/svg">
<path fill-rule="evenodd" clip-rule="evenodd" d="M20.9962 15.7471C21.6602 14.4326 22.0054 12.9757 22.0017 11.4988V11C21.734 6.1202 17.8816 2.26773 13.0568 2.00155L12.5017 2.00003C11.027 1.99618 9.56958 2.34135 8.25088 3.00743C5.0366 4.61387 3.00312 7.90204 3.00173 11.4996C2.99825 12.8327 3.2798 14.1513 3.82562 15.3661L2.05305 20.6838C1.79246 21.4656 2.5362 22.2093 3.31796 21.9487L8.63568 20.1761C9.85051 20.722 11.1693 21.0035 12.5043 21C16.0997 20.9986 19.3879 18.9652 20.9962 15.7471ZM8.3855 18.1513L4.58287 19.4189L5.85041 15.6163C5.93473 15.3633 5.91454 15.0872 5.79433 14.8492C5.27027 13.8117 4.9987 12.665 5.00173 11.5026C5.00283 8.66021 6.6082 6.06428 9.14879 4.79454C10.1901 4.26857 11.3368 3.997 12.4991 4.00003L13.0017 4.00003C16.7535 4.20854 19.7932 7.24825 20.0032 11.0551L20.0017 11.5026C20.0048 12.665 19.7332 13.8117 19.2091 14.8492C17.9375 17.3936 15.3416 18.9989 12.5013 19C11.3368 19.0031 10.1901 18.7315 9.15258 18.2074C8.91459 18.0872 8.63845 18.067 8.3855 18.1513Z" fill="black"/>
<mask id="mask0" mask-type="alpha" maskUnits="userSpaceOnUse" x="2" y="2" width="21" height="21">
<path fill-rule="evenodd" clip-rule="evenodd" d="M20.9962 15.7471C21.6602 14.4326 22.0054 12.9757 22.0017 11.4988V11C21.734 6.1202 17.8816 2.26773 13.0568 2.00155L12.5017 2.00003C11.027 1.99618 9.56958 2.34135 8.25088 3.00743C5.0366 4.61387 3.00312 7.90204 3.00173 11.4996C2.99825 12.8327 3.2798 14.1513 3.82562 15.3661L2.05305 20.6838C1.79246 21.4656 2.5362 22.2093 3.31796 21.9487L8.63568 20.1761C9.85051 20.722 11.1693 21.0035 12.5043 21C16.0997 20.9986 19.3879 18.9652 20.9962 15.7471ZM8.3855 18.1513L4.58287 19.4189L5.85041 15.6163C5.93473 15.3633 5.91454 15.0872 5.79433 14.8492C5.27027 13.8117 4.9987 12.665 5.00173 11.5026C5.00283 8.66021 6.6082 6.06428 9.14879 4.79454C10.1901 4.26857 11.3368 3.997 12.4991 4.00003L13.0017 4.00003C16.7535 4.20854 19.7932 7.24825 20.0032 11.0551L20.0017 11.5026C20.0048 12.665 19.7332 13.8117 19.2091 14.8492C17.9375 17.3936 15.3416 18.9989 12.5013 19C11.3368 19.0031 10.1901 18.7315 9.15258 18.2074C8.91459 18.0872 8.63845 18.067 8.3855 18.1513Z" fill="white"/>
</mask>
<g mask="url(#mask0)">
<rect width="24" height="24" fill="black"/>
</g>
</svg>
