<svg width="25" height="24" viewBox="0 0 25 24" fill="none" xmlns="http://www.w3.org/2000/svg">
<path fill-rule="evenodd" clip-rule="evenodd" d="M23.9736 3.24693C24.1922 2.34919 23.1806 1.66056 22.4256 2.19315C21.7172 2.69284 20.9469 3.09683 20.1348 3.39535C18.6216 2.04111 16.4599 1.62295 14.5275 2.3605C12.3907 3.17608 10.9864 5.23227 11.0017 7.51681C8.13498 7.30171 5.49195 5.81585 3.82036 3.4356C3.37367 2.79953 2.40387 2.89391 2.0882 3.60417C1.95792 3.89728 1.77456 4.39703 1.59416 5.06028C0.99777 7.25288 0.893425 9.56158 1.6083 11.7585C2.30067 13.8863 3.71202 15.6849 5.91616 17.0435C4.39795 17.7429 2.72835 18.0782 1.04175 18.0111C-0.0106389 17.9692 -0.404318 19.373 0.516364 19.8845C10.5559 25.462 22.002 19.3697 22.002 7.51031C22.0015 7.34633 21.9937 7.1833 21.9789 7.02132C22.9444 5.94991 23.6311 4.65347 23.9736 3.24693ZM19.1075 5.19655C19.3656 5.49334 19.7737 5.61125 20.1503 5.49784C20.382 5.42809 20.6112 5.35136 20.8377 5.26781C20.6489 5.51447 20.4426 5.74862 20.2198 5.9683C19.9822 6.20269 19.8771 6.5402 19.9398 6.86806C19.9805 7.08085 20.0013 7.29697 20.002 7.51361C20.002 16.4565 12.6132 21.5543 4.93401 19.5341C6.21832 19.1675 7.44453 18.5973 8.56364 17.8377C9.21261 17.3972 9.12491 16.4151 8.40814 16.0965C5.73702 14.9093 4.18717 13.2203 3.51015 11.1397C2.98215 9.51703 3.01103 7.75866 3.40607 6.05357C5.65196 8.34094 8.76719 9.62452 12.0279 9.53997C12.5699 9.52592 13.002 9.0825 13.002 8.54031V7.54031C12.9823 6.06678 13.8764 4.74973 15.2407 4.22902C16.6049 3.70831 18.1492 4.09471 19.1075 5.19655Z" fill="black"/>
<mask id="mask0" mask-type="alpha" maskUnits="userSpaceOnUse" x="0" y="2" width="25" height="20">
<path fill-rule="evenodd" clip-rule="evenodd" d="M23.9736 3.24693C24.1922 2.34919 23.1806 1.66056 22.4256 2.19315C21.7172 2.69284 20.9469 3.09683 20.1348 3.39535C18.6216 2.04111 16.4599 1.62295 14.5275 2.3605C12.3907 3.17608 10.9864 5.23227 11.0017 7.51681C8.13498 7.30171 5.49195 5.81585 3.82036 3.4356C3.37367 2.79953 2.40387 2.89391 2.0882 3.60417C1.95792 3.89728 1.77456 4.39703 1.59416 5.06028C0.99777 7.25288 0.893425 9.56158 1.6083 11.7585C2.30067 13.8863 3.71202 15.6849 5.91616 17.0435C4.39795 17.7429 2.72835 18.0782 1.04175 18.0111C-0.0106389 17.9692 -0.404318 19.373 0.516364 19.8845C10.5559 25.462 22.002 19.3697 22.002 7.51031C22.0015 7.34633 21.9937 7.1833 21.9789 7.02132C22.9444 5.94991 23.6311 4.65347 23.9736 3.24693ZM19.1075 5.19655C19.3656 5.49334 19.7737 5.61125 20.1503 5.49784C20.382 5.42809 20.6112 5.35136 20.8377 5.26781C20.6489 5.51447 20.4426 5.74862 20.2198 5.9683C19.9822 6.20269 19.8771 6.5402 19.9398 6.86806C19.9805 7.08085 20.0013 7.29697 20.002 7.51361C20.002 16.4565 12.6132 21.5543 4.93401 19.5341C6.21832 19.1675 7.44453 18.5973 8.56364 17.8377C9.21261 17.3972 9.12491 16.4151 8.40814 16.0965C5.73702 14.9093 4.18717 13.2203 3.51015 11.1397C2.98215 9.51703 3.01103 7.75866 3.40607 6.05357C5.65196 8.34094 8.76719 9.62452 12.0279 9.53997C12.5699 9.52592 13.002 9.0825 13.002 8.54031V7.54031C12.9823 6.06678 13.8764 4.74973 15.2407 4.22902C16.6049 3.70831 18.1492 4.09471 19.1075 5.19655Z" fill="white"/>
</mask>
<g mask="url(#mask0)">
<rect width="24" height="24" fill="black"/>
</g>
</svg>
